<?xml version="1.0" encoding="utf-8"?>
<!-- Generator: Adobe Illustrator 22.0.0, SVG Export Plug-In . SVG Version: 6.00 Build 0)  -->
<svg version="1.1" id="Layer_1" xmlns="http://www.w3.org/2000/svg" xmlns:xlink="http://www.w3.org/1999/xlink" x="0px" y="0px"
	 viewBox="0 0 124 23.3" style="enable-background:new 0 0 124 23.3;" xml:space="preserve">
<style type="text/css">
	.st0{fill:#404EED;}
	.st1{fill:#FFFFFF;}
</style>
<title>logo</title>
<circle class="st0" cx="67.4" cy="16.7" r="56.6"/>
<path class="st1" d="M92.5-5.9c-4.7-2.2-9.8-3.8-14.9-4.7c-0.7,1.2-1.3,2.5-1.9,3.9c-5.5-0.8-11-0.8-16.5,0
	c-0.5-1.2-1.3-2.7-1.9-3.9c-5.2,0.9-10.2,2.5-15,4.7C34,6,30.2,20.5,31.6,34.9c5.5,4.1,11.7,7.2,18.3,9.2c1.5-2,2.8-4.1,3.9-6.3
	c-2.1-0.8-4.2-1.8-6.2-3c0.5-0.4,1-0.8,1.5-1.2c11.6,5.4,24.9,5.4,36.5,0c0.5,0.4,1,0.8,1.5,1.2c-2,1.2-4,2.2-6.2,3
	c1.1,2.2,2.4,4.3,3.9,6.3c6.6-2,12.8-5.1,18.3-9.2C104.7,20.5,100.9,6,92.5-5.9z M55.5,26.7c-3.8-0.2-6.7-3.4-6.5-7.2
	c-0.2-3.8,2.7-7,6.5-7.2c0,0,0,0,0,0c3.8,0.2,6.7,3.4,6.5,7.2c0,0,0,0,0,0.1C62.1,23.2,59.2,26.4,55.5,26.7z M79.4,26.7
	c-3.8-0.2-6.7-3.4-6.5-7.2c-0.2-3.8,2.7-7,6.5-7.2c0,0,0,0,0,0c3.8,0.2,6.7,3.4,6.5,7.2c0,0,0,0,0,0C86.1,23.2,83.2,26.4,79.4,26.7
	C79.5,26.7,79.4,26.7,79.4,26.7z"/>
</svg>
