<svg id="Layer_1" data-name="Layer 1" xmlns="http://www.w3.org/2000/svg" viewBox="0 0 124 23.25"><title>logo</title><path d="M26,7A25.36,25.36,0,0,0,19.66,5a14.6,14.6,0,0,0-.8,1.64,24.35,24.35,0,0,0-7,0c-.21-.51-.54-1.16-.8-1.64A25,25,0,0,0,4.69,7,25.52,25.52,0,0,0,.13,24.36,25.93,25.93,0,0,0,7.9,28.25a20.33,20.33,0,0,0,1.66-2.68,15.41,15.41,0,0,1-2.62-1.26c.21-.15.43-.32.63-.49a18.24,18.24,0,0,0,15.52,0c.21.17.42.34.63.49a15.41,15.41,0,0,1-2.62,1.26,19.33,19.33,0,0,0,1.66,2.68,25.7,25.7,0,0,0,7.77-3.89A25.38,25.38,0,0,0,26,7ZM10.25,20.84a2.93,2.93,0,0,1-2.76-3.07,2.91,2.91,0,0,1,2.76-3.07A2.9,2.9,0,0,1,13,17.77,2.92,2.92,0,0,1,10.25,20.84Zm10.19,0a2.93,2.93,0,0,1-2.76-3.07,2.91,2.91,0,0,1,2.76-3.07,2.91,2.91,0,0,1,2.76,3.07A2.91,2.91,0,0,1,20.44,20.84Z" transform="translate(0 -5)" fill="#fff"/><path d="M41.27,9.87h6.59a9.74,9.74,0,0,1,4,.74,5.39,5.39,0,0,1,2.46,2.06,5.63,5.63,0,0,1,.82,3,5.54,5.54,0,0,1-.85,3,5.85,5.85,0,0,1-2.6,2.15,10.44,10.44,0,0,1-4.33.79H41.27Zm6,8.82a3.44,3.44,0,0,0,2.46-.81,2.87,2.87,0,0,0,.87-2.19,2.77,2.77,0,0,0-.78-2,3.15,3.15,0,0,0-2.32-.78H45.49v5.82Z" transform="translate(0 -5)" fill="#fff"/><path d="M65.44,21.68a8.71,8.71,0,0,1-2.47-1V17.83a6.65,6.65,0,0,0,2.22,1.06,9.35,9.35,0,0,0,2.7.42,2,2,0,0,0,.91-.16c.2-.11.31-.23.31-.39a.57.57,0,0,0-.17-.42,1.73,1.73,0,0,0-.65-.29l-2-.45a5.37,5.37,0,0,1-2.48-1.11,2.46,2.46,0,0,1-.73-1.88,2.6,2.6,0,0,1,.63-1.71,4.18,4.18,0,0,1,1.83-1.11,8.87,8.87,0,0,1,2.78-.4,9.71,9.71,0,0,1,2.6.31,7.14,7.14,0,0,1,2,.77v2.65A7.14,7.14,0,0,0,71,14.38a8.11,8.11,0,0,0-2.14-.28c-1.06,0-1.58.18-1.58.54a.41.41,0,0,0,.24.39,3.91,3.91,0,0,0,.9.26l1.69.31a5,5,0,0,1,2.47,1,2.67,2.67,0,0,1,.8,2.12,2.78,2.78,0,0,1-1.35,2.44,6.82,6.82,0,0,1-3.81.89A13,13,0,0,1,65.44,21.68Z" transform="translate(0 -5)" fill="#fff"/><path d="M77.59,21.32A5.11,5.11,0,0,1,75.4,19.4a5.17,5.17,0,0,1-.72-2.74,4.92,4.92,0,0,1,.75-2.72,5.31,5.31,0,0,1,2.24-1.89,8.32,8.32,0,0,1,3.51-.68,7.72,7.72,0,0,1,4.21,1.07v3.08A5.34,5.34,0,0,0,84,14.87a5.46,5.46,0,0,0-1.68-.24,4.46,4.46,0,0,0-2.46.57A1.74,1.74,0,0,0,79,16.7a1.71,1.71,0,0,0,.87,1.49,4.46,4.46,0,0,0,2.5.59A5.57,5.57,0,0,0,84,18.53a6.36,6.36,0,0,0,1.41-.6v3A8.28,8.28,0,0,1,81.11,22,8,8,0,0,1,77.59,21.32Z" transform="translate(0 -5)" fill="#fff"/><path d="M89.8,21.32a5.25,5.25,0,0,1-2.23-1.94,5.09,5.09,0,0,1-.77-2.75,4.94,4.94,0,0,1,.77-2.72,5.18,5.18,0,0,1,2.22-1.86,8.12,8.12,0,0,1,3.46-.68,8,8,0,0,1,3.45.68,5.18,5.18,0,0,1,2.22,1.86,4.89,4.89,0,0,1,.76,2.72,5.13,5.13,0,0,1-.76,2.75,5,5,0,0,1-2.22,1.94,8.74,8.74,0,0,1-6.9,0Zm5.14-3a2.24,2.24,0,0,0,.62-1.63,2.14,2.14,0,0,0-.62-1.61,2.68,2.68,0,0,0-3.38,0,2.14,2.14,0,0,0-.62,1.61,2.15,2.15,0,0,0,.62,1.63,2.25,2.25,0,0,0,1.7.62A2.42,2.42,0,0,0,94.94,18.33Z" transform="translate(0 -5)" fill="#fff"/><path d="M110.05,12v3.64a3.05,3.05,0,0,0-1.68-.42,2.6,2.6,0,0,0-2.07.83,3.76,3.76,0,0,0-.73,2.54v3.1h-4.14V11.82h4.06V15a5.22,5.22,0,0,1,1.09-2.55,2.51,2.51,0,0,1,1.93-.83A3,3,0,0,1,110.05,12Z" transform="translate(0 -5)" fill="#fff"/><path d="M124,9.53V21.69h-4.14V19.48a4,4,0,0,1-1.6,1.9,4.94,4.94,0,0,1-2.65.65,4.44,4.44,0,0,1-2.45-.68,4.53,4.53,0,0,1-1.61-1.87,6.42,6.42,0,0,1-.55-2.7,5.78,5.78,0,0,1,.6-2.79,4.6,4.6,0,0,1,1.73-1.92,4.71,4.71,0,0,1,2.56-.7,3.88,3.88,0,0,1,4,2.57V9.53Zm-4.76,8.72a2.12,2.12,0,0,0,.64-1.59,2,2,0,0,0-.62-1.54,2.37,2.37,0,0,0-1.68-.59,2.27,2.27,0,0,0-1.67.61,2,2,0,0,0-.62,1.56,2.07,2.07,0,0,0,.62,1.57,2.29,2.29,0,0,0,1.66.6A2.26,2.26,0,0,0,119.24,18.25Z" transform="translate(0 -5)" fill="#fff"/><path d="M59,12.41a2.05,2.05,0,0,0,2.15-1.94,2.17,2.17,0,0,0-4.31,0A2.06,2.06,0,0,0,59,12.41Z" transform="translate(0 -5)" fill="#fff"/><path d="M61.14,13.74a5.56,5.56,0,0,1-4.31,0v8h4.31Z" transform="translate(0 -5)" fill="#fff"/></svg>